<?xml version="1.0" encoding="utf-8"?>
<!-- Generator: Adobe Illustrator 27.7.0, SVG Export Plug-In . SVG Version: 6.00 Build 0)  -->
<svg version="1.1" id="Layer_1" xmlns="http://www.w3.org/2000/svg" xmlns:xlink="http://www.w3.org/1999/xlink" x="0px" y="0px"
	 viewBox="0 0 1061.6 1080" style="enable-background:new 0 0 1061.6 1080;" xml:space="preserve">
<style type="text/css">
	.st0{fill:#231F20;}
	.st1{fill:#FFFFFF;}
	.st2{fill:#5C0F8B;}
</style>
<g>
	<g>
		<rect x="48.5" y="490.9" class="st0" width="298.9" height="6.5"/>
		<g>
			<path class="st0" d="M73.5,668H45.2v-18.9h77V668H93.9v74.1H73.5V668z"/>
			<path class="st0" d="M155.1,648.5H174l39.8,93.6h-21.4l-8.5-20.8h-39.3l-8.5,20.8h-20.8L155.1,648.5z M176.6,703.2l-12.3-30.1
				L152,703.2H176.6z"/>
			<path class="st0" d="M225.7,649.2h18.9l43.5,57.2v-57.2h20.2v92.9h-17.4l-45-59.1v59.1h-20.2V649.2z"/>
			<path class="st0" d="M327.6,649.2h36.2c29.2,0,49.4,20.1,49.4,46.2v0.3c0,26.1-20.2,46.5-49.4,46.5h-36.2V649.2z M348,667.6v56
				h15.8c16.7,0,28-11.3,28-27.7v-0.3c0-16.5-11.3-28-28-28H348z"/>
			<path class="st0" d="M424.7,695.9v-0.3c0-26.4,20.8-48.1,49.5-48.1s49.2,21.4,49.2,47.8v0.3c0,26.4-20.8,48-49.5,48
				C445.2,743.7,424.7,722.3,424.7,695.9z M502.1,695.9v-0.3c0-15.9-11.7-29.2-28.1-29.2c-16.5,0-27.9,13-27.9,28.9v0.3
				c0,15.9,11.7,29.2,28.1,29.2S502.1,711.8,502.1,695.9z"/>
			<path class="st0" d="M539,649.2h18.9l43.5,57.2v-57.2h20.2v92.9h-17.4l-45-59.1v59.1H539V649.2z"/>
			<path class="st0" d="M45.4,878l12.1-14.5c8.4,6.9,17.1,11.3,27.7,11.3c8.4,0,13.4-3.3,13.4-8.8v-0.3c0-5.2-3.2-7.8-18.7-11.8
				c-18.7-4.8-30.8-10-30.8-28.4v-0.3c0-16.9,13.5-28,32.5-28c13.5,0,25.1,4.2,34.5,11.8l-10.6,15.4c-8.2-5.7-16.3-9.2-24.2-9.2
				s-11.9,3.6-11.9,8.1v0.3c0,6.1,4,8.1,20,12.2c18.9,4.9,29.5,11.7,29.5,27.9v0.3c0,18.5-14.1,28.8-34.1,28.8
				C70.8,892.8,56.6,887.9,45.4,878z"/>
			<path class="st0" d="M132.7,845.3v-0.3c0-26.4,19.9-48.1,48.5-48.1c17.5,0,28,5.8,36.6,14.3l-13,15c-7.2-6.5-14.5-10.5-23.8-10.5
				c-15.7,0-27,13-27,28.9v0.3c0,15.9,11,29.2,27,29.2c10.6,0,17.1-4.2,24.4-10.9l13,13.1c-9.6,10.2-20.2,16.6-38.1,16.6
				C153,893.1,132.7,872,132.7,845.3z"/>
			<path class="st0" d="M232.3,798.6h20.4v36.8h37.7v-36.8h20.4v92.9h-20.4v-37.3h-37.7v37.3h-20.4V798.6z"/>
			<path class="st0" d="M326.2,845.3v-0.3c0-26.4,20.8-48.1,49.5-48.1s49.2,21.4,49.2,47.8v0.3c0,26.4-20.8,48-49.5,48
				C346.8,893.1,326.2,871.7,326.2,845.3z M403.6,845.3v-0.3c0-15.9-11.7-29.2-28.1-29.2c-16.5,0-27.9,13-27.9,28.9v0.3
				c0,15.9,11.7,29.2,28.1,29.2C392.2,874.2,403.6,861.2,403.6,845.3z"/>
			<path class="st0" d="M436.6,845.3v-0.3c0-26.4,20.8-48.1,49.5-48.1c28.7,0,49.2,21.4,49.2,47.8v0.3c0,26.4-20.8,48-49.5,48
				C457.2,893.1,436.6,871.7,436.6,845.3z M514,845.3v-0.3c0-15.9-11.7-29.2-28.1-29.2c-16.5,0-27.9,13-27.9,28.9v0.3
				c0,15.9,11.7,29.2,28.1,29.2C502.6,874.2,514,861.2,514,845.3z"/>
			<path class="st0" d="M551.1,798.6h20.4v74.3h46.3v18.6h-66.8V798.6z"/>
			<path class="st0" d="M664,845.3v-0.3c0-26.4,20.8-48.1,49.5-48.1c28.7,0,49.2,21.4,49.2,47.8v0.3c0,26.4-20.8,48-49.5,48
				C684.6,893.1,664,871.7,664,845.3z M741.4,845.3v-0.3c0-15.9-11.7-29.2-28.1-29.2c-16.5,0-27.9,13-27.9,28.9v0.3
				c0,15.9,11.7,29.2,28.1,29.2C730,874.2,741.4,861.2,741.4,845.3z"/>
			<path class="st0" d="M778.5,798.6h70.8v18.6h-50.3v19.8h44.3v18.6h-44.3v36h-20.4V798.6z"/>
			<path class="st0" d="M51.8,948h70.1v18.2H72.1v18.9h43.8v18.2H72.1v19.5h50.4v18.2H51.8V948z"/>
			<path class="st0" d="M140.8,948h18.9l43.5,57.2V948h20.2v92.9H206l-45-59.1v59.1h-20.2V948z"/>
			<path class="st0" d="M241.6,994.7v-0.3c0-26.4,20.6-48.1,48.7-48.1c16.7,0,26.8,4.5,36.5,12.7L314,974.7
				c-7.2-6-13.5-9.4-24.3-9.4c-14.9,0-26.7,13.1-26.7,28.9v0.3c0,17,11.7,29.5,28.1,29.5c7.4,0,14.1-1.9,19.2-5.6v-13.3h-20.6v-17.7
				h40.4v40.4c-9.6,8.1-22.7,14.7-39.7,14.7C261.5,1042.5,241.6,1022.2,241.6,994.7z"/>
			<path class="st0" d="M350.8,948h20.4v92.9h-20.4V948z"/>
			<path class="st0" d="M394.5,948h18.9l43.5,57.2V948h20.2v92.9h-17.4l-45-59.1v59.1h-20.2V948z"/>
			<path class="st0" d="M499.4,948h70.1v18.2h-49.8v18.9h43.8v18.2h-43.8v19.5h50.4v18.2h-70.8V948z"/>
			<path class="st0" d="M588.4,948h70.1v18.2h-49.8v18.9h43.8v18.2h-43.8v19.5h50.4v18.2h-70.8V948z"/>
			<path class="st0" d="M677.4,948h42.5c11.8,0,21,3.3,27.1,9.4c5.2,5.2,8,12.5,8,21.2v0.3c0,15-8.1,24.4-19.9,28.8l22.7,33.2h-23.9
				l-19.9-29.7h-16.1v29.7h-20.4V948z M718.6,993.2c10,0,15.7-5.3,15.7-13.1v-0.3c0-8.8-6.1-13.3-16.1-13.3h-20.3v26.7H718.6z"/>
			<path class="st0" d="M774.4,948h20.4v92.9h-20.4V948z"/>
			<path class="st0" d="M818.1,948h18.9l43.5,57.2V948h20.2v92.9h-17.4l-45-59.1v59.1h-20.2V948z"/>
			<path class="st0" d="M918.9,994.7v-0.3c0-26.4,20.6-48.1,48.7-48.1c16.7,0,26.8,4.5,36.5,12.7l-12.9,15.5
				c-7.2-6-13.5-9.4-24.3-9.4c-14.9,0-26.7,13.1-26.7,28.9v0.3c0,17,11.7,29.5,28.1,29.5c7.4,0,14.1-1.9,19.3-5.6v-13.3h-20.6v-17.7
				h40.4v40.4c-9.6,8.1-22.7,14.7-39.7,14.7C938.8,1042.5,918.9,1022.2,918.9,994.7z"/>
		</g>
	</g>
	<g>
		<g>
			<rect x="80.6" y="50.3" class="st1" width="241.8" height="281.3"/>
			<g>
				<g>
					<path class="st2" d="M424.8,108.7h34.4l79.5,104.5V108.7h36.9v169.7h-31.8l-82.2-107.9v107.9h-36.9V108.7z"/>
					<path class="st2" d="M659.5,211.5l-65.3-102.8H638l40.5,68.2l41.2-68.2h42.4l-65.2,102.1v67.6h-37.3V211.5z"/>
					<path class="st2" d="M778.1,205.7v-97h37.3v96c0,27.6,13.8,42,36.6,42c22.8,0,36.6-13.9,36.6-40.7v-97.3H926v95.8
						c0,51.4-28.8,76.6-74.4,76.6C806,281.1,778.1,255.7,778.1,205.7z"/>
				</g>
				<path class="st2" d="M347.3,341.9H48.5V43h298.8V341.9L347.3,341.9z M187.6,306.9c0.3,2.1,4.9,3.2,5.9,0l10.5-82.8h-25.4
					L187.6,306.9L187.6,306.9z M212.8,218.2v-12.6h-43.1v12.6H212.8L212.8,218.2z M200.4,199.5c54.7,2,58.5-47.9,58.8-66.5
					c0-1.1-0.5-1.2-0.8-0.4c-1.6,3.9-8.7,17.8-28.4,26.2c-17.6,7.6-28.2,24.7-30,40.1C199.8,199.3,200.1,199.5,200.4,199.5z
					 M194.3,195.9c8.7-41.5,42.4-42.5,45.4-50.4c4.7-12.3-3.9-34.1-6.1-36.6c-0.2-0.3-0.5-0.1-0.6,0.1c-4.6,10.1-12,19.6-17.4,24
					c-7.6,6.2-37,27.9-22,62.9C193.8,196.4,194.2,196.2,194.3,195.9z M188.4,197.6c-18.3-39.2,18.3-64.4,24.3-69.9
					c0.8-0.8,0.6-1.5,0.6-2.3c0-12.3-7-32.2-9.3-35.1c-0.3-0.4-0.6-0.2-0.7,0.2c-3.1,12.1-19.8,30.2-23.2,34.2
					c-28.3,33.6-21.8,54.1,7.7,73.4C188.1,198.3,188.6,198,188.4,197.6z M180.2,198.9c-30.6-18.3-27.6-44.4-14.9-63.6
					c0.3-0.4,0.4-1.1,0.3-1.8c-0.5-4.6-5.5-16.1-7.6-19.2c-0.6-0.8-1-0.7-1-0.2c-0.2,5.2-6.1,18.3-15.2,33.3
					c-9.7,16-9.7,50.8,38.3,52.2C180.5,199.6,180.6,199.2,180.2,198.9z"/>
			</g>
		</g>
	</g>
</g>
</svg>
